<svg width="22" height="17" viewBox="0 0 22 17" fill="none" xmlns="http://www.w3.org/2000/svg">
<path fill-rule="evenodd" clip-rule="evenodd" d="M0.622909 9.34149L2.89619 2.90532C2.9075 2.87332 2.92096 2.84211 2.93649 2.81193C3.31617 2.07411 3.99793 1.50861 4.72519 1.13231C5.45804 0.75312 6.30894 0.527832 7.11111 0.527832C8.25937 0.527832 9.40095 0.988667 10.2581 1.71962C10.533 1.95398 10.7847 2.22181 11 2.51784C11.2153 2.22181 11.467 1.95398 11.7419 1.71962C12.5991 0.988667 13.7406 0.527832 14.8889 0.527832C15.6911 0.527832 16.542 0.75312 17.2748 1.13231C18.0021 1.50861 18.6838 2.07411 19.0635 2.81193C19.079 2.84211 19.0925 2.87332 19.1038 2.90532L21.3771 9.34144C21.6176 9.93984 21.75 10.5934 21.75 11.2778C21.75 14.1466 19.4244 16.4723 16.5556 16.4723C13.9414 16.4723 11.7783 14.5413 11.4149 12.0278H10.5851C10.2217 14.5413 8.05856 16.4723 5.44444 16.4723C2.57645 16.4723 0.251322 14.1479 0.250004 11.2803M3.18176 6.60076L4.29183 3.45792C4.49314 3.09479 4.8859 2.73805 5.41451 2.46454C5.95711 2.18379 6.57325 2.02783 7.11111 2.02783C7.87198 2.02783 8.67485 2.34083 9.28484 2.86098C9.89351 3.38002 10.25 4.04965 10.25 4.73462V9.3022C9.47259 7.41323 7.61382 6.08337 5.44444 6.08337C4.63337 6.08337 3.86572 6.26926 3.18176 6.60076ZM9.06383 10.5333C9.11304 10.7738 9.13889 11.0228 9.13889 11.2778C9.13888 13.3182 7.48483 14.9723 5.44444 14.9723C3.40406 14.9723 1.75 13.3182 1.75 11.2778C1.75 9.75342 2.67326 8.44465 3.99112 7.8802C4.01851 7.86847 4.04607 7.85707 4.07379 7.84598C4.49773 7.67654 4.9603 7.58339 5.44444 7.58339C6.71962 7.58339 7.84391 8.22944 8.50784 9.21209C8.77346 9.60522 8.96539 10.0522 9.06383 10.5333ZM11.75 9.30222C11.9444 8.82997 12.2063 8.39268 12.5238 8.00237C13.4762 6.83143 14.9285 6.08339 16.5556 6.08339C16.5782 6.08339 16.6007 6.08353 16.6233 6.08382C17.1063 6.08999 17.5733 6.16207 18.0157 6.29143C18.2936 6.37266 18.5618 6.47647 18.8182 6.60076L17.7082 3.45792C17.5069 3.09478 17.1141 2.73805 16.5855 2.46454C16.0429 2.18379 15.4268 2.02783 14.8889 2.02783C14.128 2.02783 13.3251 2.34083 12.7152 2.86098C12.1065 3.38002 11.75 4.04965 11.75 4.73462V9.30222ZM12.8611 11.2778C12.8611 11.2778 12.8611 11.2778 12.8611 11.2778C12.8611 13.3182 14.5152 14.9723 16.5556 14.9723C18.5952 14.9723 20.2488 13.3194 20.25 11.28C20.25 11.2793 20.25 11.2786 20.25 11.2778C20.25 11.2471 20.2496 11.2165 20.2489 11.186C20.248 11.1492 20.2466 11.1124 20.2446 11.0759C20.1662 9.62009 19.2449 8.38829 17.9602 7.85976C17.527 7.6816 17.0527 7.58339 16.5556 7.58339C15.2803 7.58339 14.156 8.22951 13.4921 9.21223C13.0937 9.80186 12.8611 10.5127 12.8611 11.2778Z" fill="black"/>
<path d="M0.622909 9.34149C0.382371 9.93988 0.25 10.5934 0.25 11.2778C0.25 11.2778 0.25 11.2778 0.25 11.2778" fill="black"/>
</svg>
