<svg width="21" height="20" viewBox="0 0 21 20" fill="none" xmlns="http://www.w3.org/2000/svg">
<path d="M12.9819 0.839693C11.6244 -0.279896 9.3757 -0.279898 8.01812 0.839687L1.3872 6.30813C1.00637 6.62219 0.750467 7.01923 0.651722 7.44922C-0.153582 10.956 -0.213026 14.546 0.475888 18.0686L0.719794 19.3157C0.796833 19.7096 1.22171 20 1.72099 20H6.35439C6.73598 20 7.04533 19.753 7.04533 19.4483V11.7241H13.9547V19.4483C13.9547 19.753 14.2641 20 14.6457 20H19.279C19.7783 20 20.2032 19.7096 20.2802 19.3157L20.5241 18.0686C21.213 14.546 21.1536 10.956 20.3483 7.44921C20.2495 7.01923 19.9936 6.62219 19.6128 6.30813L12.9819 0.839693Z" fill="black"/>
</svg>
