<svg width="659" height="471" viewBox="0 0 659 471" fill="none" xmlns="http://www.w3.org/2000/svg">
<path d="M286.737 128.168L286 128.309L286.737 128.168ZM310.467 172.705C310.179 172.407 309.705 172.398 309.406 172.685C309.108 172.972 309.099 173.447 309.386 173.746L310.467 172.705ZM289.288 140.704C289.422 141.096 289.849 141.305 290.241 141.171C290.633 141.037 290.842 140.61 290.708 140.218L289.288 140.704ZM454.571 112L453.821 111.992L454.571 112ZM368.833 22.2562C352.272 22.4592 336.118 27.6531 322.339 37.2145L323.194 38.4468C336.73 29.054 352.593 23.9553 368.851 23.7561L368.833 22.2562ZM322.339 37.2145C308.281 46.9698 297.328 60.8324 290.862 77.046L292.255 77.6017C298.615 61.6555 309.383 48.0307 323.194 38.4468L322.339 37.2145ZM290.862 77.046C284.395 93.2594 282.704 111.099 286 128.309L287.473 128.027C284.23 111.097 285.895 93.5481 292.255 77.6017L290.862 77.046ZM309.386 173.746C321.339 186.16 336.572 194.617 353.16 198.044L353.463 196.575C337.178 193.21 322.214 184.905 310.467 172.705L309.386 173.746ZM353.16 198.044C369.748 201.47 386.941 199.711 402.565 192.99L401.972 191.612C386.63 198.212 369.749 199.939 353.463 196.575L353.16 198.044ZM402.565 192.99C418.188 186.27 431.537 174.89 440.927 160.296L439.665 159.484C430.434 173.833 417.315 185.012 401.972 191.612L402.565 192.99ZM440.927 160.296C450.136 145.982 455.133 129.204 455.321 112.008L453.821 111.992C453.636 128.908 448.72 145.41 439.665 159.484L440.927 160.296ZM453.576 110.25H371.342V111.75H453.576V110.25ZM370.592 109.5V24H369.092V109.5H370.592ZM286 128.309C286.809 132.535 287.91 136.676 289.288 140.704L290.708 140.218C289.352 136.257 288.269 132.184 287.473 128.027L286 128.309ZM371.342 110.25C370.928 110.25 370.592 109.914 370.592 109.5H369.092C369.092 110.743 370.1 111.75 371.342 111.75V110.25ZM455.321 112.008C455.332 111.034 454.541 110.25 453.576 110.25V111.75C453.716 111.75 453.822 111.862 453.821 111.992L455.321 112.008ZM368.851 23.7561C368.98 23.7545 369.092 23.8597 369.092 24H370.592C370.592 23.0357 369.809 22.2442 368.833 22.2562L368.851 23.7561Z" fill="#F7F7F7"/>
<path d="M401.618 2C401.618 1.44772 402.065 0.999268 402.618 1.007C412.014 1.13862 421.303 3.12419 429.991 6.86128C438.986 10.7309 447.159 16.4027 454.044 23.5528C460.929 30.7029 466.39 39.1913 470.116 48.5334C473.719 57.5674 475.631 67.2286 475.754 77C475.76 77.5523 475.312 78 474.76 78L402.618 78C402.065 78 401.618 77.5523 401.618 77V2Z" stroke="#F7F7F7" stroke-width="1.5"/>
<path d="M503.047 243C503.047 243.414 503.383 243.75 503.797 243.75C504.211 243.75 504.547 243.414 504.547 243H503.047ZM504.547 294.25C504.547 293.836 504.211 293.5 503.797 293.5C503.383 293.5 503.047 293.836 503.047 294.25H504.547ZM507.797 161.75H654V160.25H507.797V161.75ZM657.25 165V362H658.75V165H657.25ZM654 365.25H507.797V366.75H654V365.25ZM504.547 243V165H503.047V243H504.547ZM504.547 362V294.25H503.047V362H504.547ZM507.797 365.25C506.002 365.25 504.547 363.795 504.547 362H503.047C503.047 364.623 505.174 366.75 507.797 366.75V365.25ZM657.25 362C657.25 363.795 655.795 365.25 654 365.25V366.75C656.624 366.75 658.75 364.623 658.75 362H657.25ZM654 161.75C655.795 161.75 657.25 163.205 657.25 165H658.75C658.75 162.377 656.624 160.25 654 160.25V161.75ZM507.797 160.25C505.174 160.25 503.047 162.377 503.047 165H504.547C504.547 163.205 506.002 161.75 507.797 161.75V160.25Z" fill="#F7F7F7"/>
<path d="M542.348 212.25H580.899" stroke="#F7F7F7" stroke-width="1.5" stroke-linecap="round"/>
<path d="M542.348 263.5H580.899" stroke="#F7F7F7" stroke-width="1.5" stroke-linecap="round"/>
<path d="M619.449 212.25H609.812" stroke="#F7F7F7" stroke-width="1.5" stroke-linecap="round"/>
<path d="M619.449 263.5H609.812" stroke="#F7F7F7" stroke-width="1.5" stroke-linecap="round"/>
<path d="M542.348 314.75H580.899" stroke="#F7F7F7" stroke-width="1.5" stroke-linecap="round"/>
<path d="M423.75 370.775C423.75 370.361 423.414 370.025 423 370.025C422.586 370.025 422.25 370.361 422.25 370.775H423.75ZM295.75 370.775C295.75 370.361 295.414 370.025 295 370.025C294.586 370.025 294.25 370.361 294.25 370.775H295.75ZM358.25 470C358.25 470.414 358.586 470.75 359 470.75C359.414 470.75 359.75 470.414 359.75 470H358.25ZM359.75 451.1C359.75 450.686 359.414 450.35 359 450.35C358.586 450.35 358.25 450.686 358.25 451.1H359.75ZM370.676 284.424C371.05 284.603 371.498 284.445 371.677 284.071C371.855 283.698 371.697 283.25 371.324 283.071L370.676 284.424ZM388.845 302.902C388.696 302.515 388.262 302.323 387.876 302.471C387.489 302.62 387.297 303.054 387.445 303.441L388.845 302.902ZM390.25 318.8V366.05H391.75V318.8H390.25ZM327.75 366.05V318.8H326.25V366.05H327.75ZM359 403.1C341.853 403.1 327.75 386.634 327.75 366.05H326.25C326.25 387.219 340.8 404.6 359 404.6V403.1ZM390.25 366.05C390.25 386.634 376.147 403.1 359 403.1V404.6C377.2 404.6 391.75 387.219 391.75 366.05H390.25ZM359 280.25C340.8 280.25 326.25 297.631 326.25 318.8H327.75C327.75 298.216 341.853 281.75 359 281.75V280.25ZM422.25 370.775C422.25 412.235 393.82 445.625 359 445.625V447.125C394.873 447.125 423.75 412.82 423.75 370.775H422.25ZM359 445.625C324.18 445.625 295.75 412.235 295.75 370.775H294.25C294.25 412.82 323.127 447.125 359 447.125V445.625ZM359.75 470V451.1H358.25V470H359.75ZM359 281.75C363.127 281.75 367.067 282.698 370.676 284.424L371.324 283.071C367.521 281.253 363.361 280.25 359 280.25V281.75ZM387.445 303.441C389.246 308.117 390.25 313.318 390.25 318.8H391.75C391.75 313.135 390.712 307.752 388.845 302.902L387.445 303.441Z" fill="#F7F7F7"/>
<path d="M0.25 194.8C0.25 195.214 0.585786 195.55 1 195.55C1.41421 195.55 1.75 195.214 1.75 194.8H0.25ZM1.75 253.2C1.75 252.786 1.41421 252.45 1 252.45C0.585786 252.45 0.25 252.786 0.25 253.2H1.75ZM4 78.75H221.361V77.25H4V78.75ZM223.611 81V367H225.111V81H223.611ZM221.361 369.25H4V370.75H221.361V369.25ZM1.75 194.8V81H0.25V194.8H1.75ZM1.75 367V253.2H0.25V367H1.75ZM4 369.25C2.75736 369.25 1.75 368.243 1.75 367H0.25C0.25 369.071 1.92893 370.75 4 370.75V369.25ZM223.611 367C223.611 368.243 222.604 369.25 221.361 369.25V370.75C223.432 370.75 225.111 369.071 225.111 367H223.611ZM221.361 78.75C222.604 78.75 223.611 79.7574 223.611 81H225.111C225.111 78.9289 223.432 77.25 221.361 77.25V78.75ZM4 77.25C1.92893 77.25 0.25 78.9289 0.25 81H1.75C1.75 79.7574 2.75736 78.75 4 78.75V77.25Z" fill="#F7F7F7"/>
<path d="M149.907 85.2998L75.4535 85.2998" stroke="#F7F7F7" stroke-width="2.5" stroke-linecap="round"/>
</svg>
