<svg width="20" height="19" viewBox="0 0 20 19" fill="none" xmlns="http://www.w3.org/2000/svg">
<path d="M7.22222 0C6.18403 0 5.32292 0.760742 5.07639 1.78867C5.04861 1.78867 5.02778 1.78125 5 1.78125C3.77431 1.78125 2.77778 2.84629 2.77778 4.15625C2.77778 4.33438 2.79861 4.50879 2.83681 4.67578C1.82292 5.12109 1.11111 6.18242 1.11111 7.42188C1.11111 7.88945 1.22222 8.32363 1.39931 8.71699C0.565972 9.2291 0 10.1791 0 11.2812C0 12.517 0.708333 13.5783 1.71528 14.0236C1.68403 14.1943 1.66667 14.3687 1.66667 14.5469C1.66667 16.0238 2.78472 17.2188 4.16667 17.2188C4.30903 17.2188 4.44792 17.2002 4.58333 17.1742C4.91667 18.2318 5.84028 19 6.94444 19C8.32639 19 9.44444 17.8051 9.44444 16.3281V2.375C9.44444 1.06504 8.44792 0 7.22222 0ZM20 11.2812C20 10.1791 19.434 9.2291 18.6007 8.71699C18.7813 8.32363 18.8889 7.88945 18.8889 7.42188C18.8889 6.18242 18.1771 5.12109 17.1632 4.67578C17.1979 4.50879 17.2222 4.33438 17.2222 4.15625C17.2222 2.84629 16.2257 1.78125 15 1.78125C14.9722 1.78125 14.9479 1.78867 14.9236 1.78867C14.6771 0.760742 13.816 0 12.7778 0C11.5521 0 10.5556 1.06133 10.5556 2.375V16.3281C10.5556 17.8051 11.6736 19 13.0556 19C14.1597 19 15.0833 18.2318 15.4167 17.1742C15.5521 17.2002 15.691 17.2188 15.8333 17.2188C17.2153 17.2188 18.3333 16.0238 18.3333 14.5469C18.3333 14.3687 18.316 14.1943 18.2847 14.0236C19.2917 13.5783 20 12.517 20 11.2812Z" fill="black"/>
</svg>
