<svg width="22" height="21" viewBox="0 0 22 21" fill="none" xmlns="http://www.w3.org/2000/svg">
<path fill-rule="evenodd" clip-rule="evenodd" d="M6.06698 1.13505C6.0678 1.43234 5.96594 1.68898 5.7614 1.90486L8.85431 4.65856H13.1456L16.2387 1.90486C16.0341 1.68898 15.9323 1.43234 15.9331 1.13505C15.933 0.823006 16.0471 0.556473 16.2759 0.335569C16.504 0.112855 16.779 0.000904651 17.101 0C17.424 0.000904651 17.7002 0.112855 17.9293 0.335569C18.1581 0.556473 18.2722 0.823063 18.2722 1.13505C18.2722 1.44812 18.1581 1.71573 17.9293 1.93776C17.7001 2.15935 17.424 2.27011 17.101 2.27011C16.9258 2.26983 16.765 2.23692 16.6189 2.17139L15.4509 4.65856H16.9584C17.7889 4.65856 18.4984 4.94375 19.0871 5.51396C19.6756 6.08327 19.9698 6.76984 19.9698 7.57357V10.6761L21.2497 9.12646H22V13.3081H21.2497L19.9698 11.7585V13.7554H2.03359V11.7551L0.7503 13.3081H0V9.12646H0.7503L2.03359 10.6793V7.57357C2.03359 6.76984 2.32779 6.08333 2.91632 5.51396C3.50496 4.94375 4.21454 4.65856 5.04506 4.65856H6.54898L5.38115 2.17139C5.23489 2.23692 5.07417 2.26983 4.89898 2.27011C4.57589 2.27011 4.29977 2.15935 4.07056 1.93776C3.84187 1.71567 3.72764 1.44812 3.7277 1.13505C3.72764 0.823006 3.84187 0.556473 4.07056 0.335569C4.29983 0.112855 4.57589 0.000904651 4.89898 0C5.22095 0.000904651 5.49584 0.112855 5.72401 0.335569C5.95276 0.556473 6.06704 0.823006 6.06698 1.13505ZM8.31444 8.88955C8.0259 8.609 7.67621 8.46866 7.26545 8.46844C6.85345 8.46866 6.50272 8.609 6.21295 8.88955C5.92347 9.17022 5.77861 9.51031 5.77838 9.90943C5.77861 10.3075 5.92347 10.6463 6.21295 10.926C6.50272 11.2065 6.85345 11.3469 7.26545 11.3471C7.67621 11.3469 8.0259 11.2065 8.31444 10.926C8.60392 10.6463 8.74884 10.3075 8.74901 9.90943C8.74884 9.51031 8.60392 9.17022 8.31444 8.88955ZM15.7835 10.926C16.073 10.6464 16.2178 10.3075 16.2182 9.90949C16.2178 9.51031 16.073 9.17028 15.7835 8.88961C15.495 8.60905 15.1453 8.46872 14.7346 8.46849C14.3225 8.46872 13.9718 8.60905 13.6821 8.88961C13.3926 9.17028 13.2478 9.51037 13.2475 9.90949C13.2478 10.3075 13.3926 10.6464 13.6821 10.926C13.9718 11.2066 14.3226 11.3469 14.7346 11.3471C15.1453 11.3469 15.495 11.2066 15.7835 10.926Z" fill="black"/>
<path fill-rule="evenodd" clip-rule="evenodd" d="M2.03357 15.7888V14.6899H7.14315C7.31437 14.9388 7.51582 15.1757 7.74743 15.4004C8.64748 16.2721 9.73277 16.7074 11.0033 16.7066C12.2746 16.7075 13.3587 16.2721 14.2557 15.4004C14.4885 15.1757 14.6911 14.9388 14.8636 14.6899H19.9697V15.7888C19.9697 16.5947 19.6755 17.2834 19.0869 17.8549C18.5167 18.4074 17.8332 18.6925 17.0364 18.7103H5.04504C4.21452 18.7103 3.50494 18.4251 2.9163 17.8549C2.32777 17.2833 2.03357 16.5947 2.03357 15.7888Z" fill="black"/>
<path fill-rule="evenodd" clip-rule="evenodd" d="M6.51849 19.6215L6.52188 19.6249C9.49368 19.6249 12.4655 19.6249 15.4373 19.6249C15.4362 20.0831 15.4351 20.5417 15.4338 20.9999H6.51849V19.6215Z" fill="black"/>
</svg>
